<svg version="1" xmlns="http://www.w3.org/2000/svg" width="682.667" height="682.667" viewBox="0 0 512.000000 512.000000"><path d="M228 1.5c-31.9 3.9-57.9 11.7-85.9 25.6-50.4 25-90.1 64.7-115 115C9 178.5 0 216.3 0 256c0 58.1 20.7 116.3 57.5 161.5 9.2 11.4 27.4 29.4 38.7 38.4 45 35.9 102.5 56.1 159.8 56.1 57.3 0 114.8-20.2 159.8-56.1 11.3-9 29.5-27 38.7-38.4C491.3 372.3 512 314.1 512 256c0-39.7-9-77.5-27.1-113.9-24.9-50.3-64.6-90-115-115-29-14.5-56.6-22.4-90.1-26.1C267-.3 241.1-.1 228 1.5zm50 95c52.9 7.6 98.4 40.3 122.4 88.3 6.1 12.1 12.5 31.8 14.4 44.4l.9 5.8h-51.5l-1.2-5.3c-.7-2.8-2.8-9.3-4.7-14.2-13.4-34.2-41.5-58.6-78-67.7-12.6-3.2-37-3.2-49.6 0-32.8 8.2-59.1 28.8-73.6 57.8-3.9 7.7-8.2 19.6-9.6 26.1l-.7 3.3h67l2.5-4.3c7.3-12.4 24.1-21.7 39.2-21.7 21.1 0 41 16.1 45.4 36.8 6.9 32.6-22.5 62-55.1 55.1-11.1-2.4-24.8-11.8-29.4-20.4l-1.9-3.5H147l.6 2.7c9.5 41.3 41.1 73 83.1 83.5 12.6 3.2 37 3.2 49.6 0 41.6-10.4 72.3-40.9 82.7-82l1.1-4.2h51.6l-.9 5.7c-1.9 12.7-8.3 32.4-14.4 44.5-37.7 75.3-125.5 109.1-203.6 78.5-50-19.7-88.6-65.6-98.4-117.4-.9-4.8-1.8-9.4-2-10.1-.3-.9-4.3-1.2-15.6-1.3H65.5l-17.8-21L30 235h33c25.6 0 33.1-.3 33.4-1.3.2-.6 1.1-5.2 2-10 2.1-10.9 6.6-24.6 11.7-35.5 29.7-63.9 98.6-101.5 167.9-91.7z"/></svg>